<mxfile host="app.diagrams.net" modified="2023-11-21T10:13:38.369Z" agent="Mozilla/5.0 (Windows NT 10.0; Win64; x64) AppleWebKit/537.36 (KHTML, like Gecko) Chrome/119.0.0.0 Safari/537.36" etag="cpWi2W8XyK-4bI1hnuPQ" version="22.1.3" type="device">
  <diagram id="R2lEEEUBdFMjLlhIrx00" name="Page-1">
    <mxGraphModel dx="1434" dy="738" grid="1" gridSize="10" guides="1" tooltips="1" connect="1" arrows="1" fold="1" page="1" pageScale="1" pageWidth="850" pageHeight="1100" math="0" shadow="0" extFonts="Permanent Marker^https://fonts.googleapis.com/css?family=Permanent+Marker">
      <root>
        <mxCell id="0" />
        <mxCell id="1" parent="0" />
        <mxCell id="4uTu8Fgki8ZaqtgNegOI-38" value="" style="rounded=0;whiteSpace=wrap;html=1;fillColor=#ffe6cc;strokeColor=#d79b00;" vertex="1" parent="1">
          <mxGeometry x="10" y="310" width="510" height="110" as="geometry" />
        </mxCell>
        <mxCell id="4uTu8Fgki8ZaqtgNegOI-1" value="CENTRO" style="whiteSpace=wrap;html=1;align=center;" vertex="1" parent="1">
          <mxGeometry x="390" y="100" width="120" height="60" as="geometry" />
        </mxCell>
        <mxCell id="4uTu8Fgki8ZaqtgNegOI-2" value="posee" style="shape=rhombus;perimeter=rhombusPerimeter;whiteSpace=wrap;html=1;align=center;" vertex="1" parent="1">
          <mxGeometry x="405" y="200" width="90" height="50" as="geometry" />
        </mxCell>
        <mxCell id="4uTu8Fgki8ZaqtgNegOI-3" value="" style="endArrow=none;html=1;rounded=0;entryX=0.5;entryY=1;entryDx=0;entryDy=0;exitX=0.5;exitY=0;exitDx=0;exitDy=0;" edge="1" parent="1" source="4uTu8Fgki8ZaqtgNegOI-2" target="4uTu8Fgki8ZaqtgNegOI-1">
          <mxGeometry width="50" height="50" relative="1" as="geometry">
            <mxPoint x="460" y="310" as="sourcePoint" />
            <mxPoint x="510" y="260" as="targetPoint" />
          </mxGeometry>
        </mxCell>
        <mxCell id="4uTu8Fgki8ZaqtgNegOI-4" value="ALUMNO" style="rounded=0;whiteSpace=wrap;html=1;" vertex="1" parent="1">
          <mxGeometry x="390" y="310" width="120" height="60" as="geometry" />
        </mxCell>
        <mxCell id="4uTu8Fgki8ZaqtgNegOI-5" value="" style="endArrow=none;html=1;rounded=0;entryX=0.5;entryY=1;entryDx=0;entryDy=0;exitX=0.5;exitY=0;exitDx=0;exitDy=0;" edge="1" parent="1" source="4uTu8Fgki8ZaqtgNegOI-4" target="4uTu8Fgki8ZaqtgNegOI-2">
          <mxGeometry width="50" height="50" relative="1" as="geometry">
            <mxPoint x="460" y="310" as="sourcePoint" />
            <mxPoint x="510" y="260" as="targetPoint" />
          </mxGeometry>
        </mxCell>
        <mxCell id="4uTu8Fgki8ZaqtgNegOI-6" value="&lt;u&gt;CodCentro&lt;/u&gt;" style="ellipse;whiteSpace=wrap;html=1;align=center;" vertex="1" parent="1">
          <mxGeometry x="410" y="20" width="80" height="30" as="geometry" />
        </mxCell>
        <mxCell id="4uTu8Fgki8ZaqtgNegOI-7" value="" style="endArrow=none;html=1;rounded=0;entryX=0.5;entryY=1;entryDx=0;entryDy=0;" edge="1" parent="1" target="4uTu8Fgki8ZaqtgNegOI-6">
          <mxGeometry width="50" height="50" relative="1" as="geometry">
            <mxPoint x="450" y="100" as="sourcePoint" />
            <mxPoint x="510" y="260" as="targetPoint" />
          </mxGeometry>
        </mxCell>
        <mxCell id="4uTu8Fgki8ZaqtgNegOI-8" value="&lt;u&gt;DniAlumno&lt;/u&gt;" style="ellipse;whiteSpace=wrap;html=1;align=center;" vertex="1" parent="1">
          <mxGeometry x="360" y="250" width="70" height="30" as="geometry" />
        </mxCell>
        <mxCell id="4uTu8Fgki8ZaqtgNegOI-9" value="" style="endArrow=none;html=1;rounded=0;entryX=0.5;entryY=1;entryDx=0;entryDy=0;exitX=0.25;exitY=0;exitDx=0;exitDy=0;" edge="1" parent="1" source="4uTu8Fgki8ZaqtgNegOI-4" target="4uTu8Fgki8ZaqtgNegOI-8">
          <mxGeometry width="50" height="50" relative="1" as="geometry">
            <mxPoint x="420" y="300" as="sourcePoint" />
            <mxPoint x="510" y="260" as="targetPoint" />
          </mxGeometry>
        </mxCell>
        <mxCell id="4uTu8Fgki8ZaqtgNegOI-10" value="posee" style="shape=rhombus;perimeter=rhombusPerimeter;whiteSpace=wrap;html=1;align=center;fillColor=#fff2cc;strokeColor=#d6b656;" vertex="1" parent="1">
          <mxGeometry x="220" y="270" width="90" height="50" as="geometry" />
        </mxCell>
        <mxCell id="4uTu8Fgki8ZaqtgNegOI-11" value="cursa" style="shape=rhombus;perimeter=rhombusPerimeter;whiteSpace=wrap;html=1;align=center;fillColor=#fff2cc;strokeColor=#d6b656;" vertex="1" parent="1">
          <mxGeometry x="220" y="360" width="90" height="50" as="geometry" />
        </mxCell>
        <mxCell id="4uTu8Fgki8ZaqtgNegOI-12" value="" style="endArrow=none;html=1;rounded=0;entryX=1;entryY=0.5;entryDx=0;entryDy=0;exitX=0;exitY=0.5;exitDx=0;exitDy=0;" edge="1" parent="1" source="4uTu8Fgki8ZaqtgNegOI-4" target="4uTu8Fgki8ZaqtgNegOI-10">
          <mxGeometry width="50" height="50" relative="1" as="geometry">
            <mxPoint x="460" y="310" as="sourcePoint" />
            <mxPoint x="510" y="260" as="targetPoint" />
          </mxGeometry>
        </mxCell>
        <mxCell id="4uTu8Fgki8ZaqtgNegOI-13" value="" style="endArrow=none;html=1;rounded=0;entryX=1;entryY=0.5;entryDx=0;entryDy=0;" edge="1" parent="1" target="4uTu8Fgki8ZaqtgNegOI-11">
          <mxGeometry width="50" height="50" relative="1" as="geometry">
            <mxPoint x="390" y="340" as="sourcePoint" />
            <mxPoint x="310" y="305" as="targetPoint" />
          </mxGeometry>
        </mxCell>
        <mxCell id="4uTu8Fgki8ZaqtgNegOI-14" value="TITULACION" style="whiteSpace=wrap;html=1;align=center;" vertex="1" parent="1">
          <mxGeometry x="20" y="310" width="120" height="60" as="geometry" />
        </mxCell>
        <mxCell id="4uTu8Fgki8ZaqtgNegOI-15" value="" style="endArrow=none;html=1;rounded=0;exitX=1;exitY=0.5;exitDx=0;exitDy=0;entryX=0;entryY=0.5;entryDx=0;entryDy=0;" edge="1" parent="1" source="4uTu8Fgki8ZaqtgNegOI-14" target="4uTu8Fgki8ZaqtgNegOI-10">
          <mxGeometry width="50" height="50" relative="1" as="geometry">
            <mxPoint x="400" y="310" as="sourcePoint" />
            <mxPoint x="450" y="260" as="targetPoint" />
          </mxGeometry>
        </mxCell>
        <mxCell id="4uTu8Fgki8ZaqtgNegOI-16" value="" style="endArrow=none;html=1;rounded=0;entryX=0;entryY=0.5;entryDx=0;entryDy=0;" edge="1" parent="1" target="4uTu8Fgki8ZaqtgNegOI-11">
          <mxGeometry width="50" height="50" relative="1" as="geometry">
            <mxPoint x="140" y="340" as="sourcePoint" />
            <mxPoint x="220" y="305" as="targetPoint" />
          </mxGeometry>
        </mxCell>
        <mxCell id="4uTu8Fgki8ZaqtgNegOI-17" value="&lt;u&gt;NomTitulo&lt;/u&gt;" style="ellipse;whiteSpace=wrap;html=1;align=center;" vertex="1" parent="1">
          <mxGeometry x="40" y="240" width="80" height="30" as="geometry" />
        </mxCell>
        <mxCell id="4uTu8Fgki8ZaqtgNegOI-18" value="" style="endArrow=none;html=1;rounded=0;entryX=0.5;entryY=1;entryDx=0;entryDy=0;exitX=0.5;exitY=0;exitDx=0;exitDy=0;" edge="1" parent="1" source="4uTu8Fgki8ZaqtgNegOI-14" target="4uTu8Fgki8ZaqtgNegOI-17">
          <mxGeometry width="50" height="50" relative="1" as="geometry">
            <mxPoint x="400" y="310" as="sourcePoint" />
            <mxPoint x="450" y="260" as="targetPoint" />
          </mxGeometry>
        </mxCell>
        <mxCell id="4uTu8Fgki8ZaqtgNegOI-19" value="tiene" style="shape=rhombus;perimeter=rhombusPerimeter;whiteSpace=wrap;html=1;align=center;fillColor=#fff2cc;strokeColor=#d6b656;" vertex="1" parent="1">
          <mxGeometry x="570" y="315" width="90" height="50" as="geometry" />
        </mxCell>
        <mxCell id="4uTu8Fgki8ZaqtgNegOI-22" value="TRABAJO" style="shape=ext;margin=3;double=1;whiteSpace=wrap;html=1;align=center;" vertex="1" parent="1">
          <mxGeometry x="720" y="310" width="120" height="60" as="geometry" />
        </mxCell>
        <mxCell id="4uTu8Fgki8ZaqtgNegOI-23" value="" style="endArrow=none;html=1;rounded=0;exitX=1;exitY=0.5;exitDx=0;exitDy=0;entryX=0;entryY=0.5;entryDx=0;entryDy=0;" edge="1" parent="1" source="4uTu8Fgki8ZaqtgNegOI-4" target="4uTu8Fgki8ZaqtgNegOI-19">
          <mxGeometry width="50" height="50" relative="1" as="geometry">
            <mxPoint x="400" y="310" as="sourcePoint" />
            <mxPoint x="450" y="260" as="targetPoint" />
          </mxGeometry>
        </mxCell>
        <mxCell id="4uTu8Fgki8ZaqtgNegOI-24" value="" style="endArrow=none;html=1;rounded=0;exitX=1;exitY=0.5;exitDx=0;exitDy=0;entryX=0;entryY=0.5;entryDx=0;entryDy=0;" edge="1" parent="1" source="4uTu8Fgki8ZaqtgNegOI-19" target="4uTu8Fgki8ZaqtgNegOI-22">
          <mxGeometry width="50" height="50" relative="1" as="geometry">
            <mxPoint x="520" y="350" as="sourcePoint" />
            <mxPoint x="580" y="350" as="targetPoint" />
          </mxGeometry>
        </mxCell>
        <mxCell id="4uTu8Fgki8ZaqtgNegOI-27" value="&lt;u&gt;FechInicio&lt;/u&gt;" style="ellipse;shape=doubleEllipse;margin=3;whiteSpace=wrap;html=1;align=center;" vertex="1" parent="1">
          <mxGeometry x="525" y="260" width="80" height="30" as="geometry" />
        </mxCell>
        <mxCell id="4uTu8Fgki8ZaqtgNegOI-28" value="FechFin" style="ellipse;shape=doubleEllipse;margin=3;whiteSpace=wrap;html=1;align=center;" vertex="1" parent="1">
          <mxGeometry x="630" y="260" width="80" height="30" as="geometry" />
        </mxCell>
        <mxCell id="4uTu8Fgki8ZaqtgNegOI-29" value="AreaTrabajo" style="ellipse;shape=doubleEllipse;margin=3;whiteSpace=wrap;html=1;align=center;" vertex="1" parent="1">
          <mxGeometry x="640" y="410" width="80" height="30" as="geometry" />
        </mxCell>
        <mxCell id="4uTu8Fgki8ZaqtgNegOI-30" value="" style="endArrow=none;html=1;rounded=0;entryX=0.5;entryY=1;entryDx=0;entryDy=0;exitX=0.5;exitY=0;exitDx=0;exitDy=0;" edge="1" parent="1" source="4uTu8Fgki8ZaqtgNegOI-19" target="4uTu8Fgki8ZaqtgNegOI-27">
          <mxGeometry width="50" height="50" relative="1" as="geometry">
            <mxPoint x="400" y="310" as="sourcePoint" />
            <mxPoint x="450" y="260" as="targetPoint" />
          </mxGeometry>
        </mxCell>
        <mxCell id="4uTu8Fgki8ZaqtgNegOI-31" value="" style="endArrow=none;html=1;rounded=0;entryX=0.5;entryY=1;entryDx=0;entryDy=0;exitX=0.5;exitY=0;exitDx=0;exitDy=0;" edge="1" parent="1" source="4uTu8Fgki8ZaqtgNegOI-19" target="4uTu8Fgki8ZaqtgNegOI-28">
          <mxGeometry width="50" height="50" relative="1" as="geometry">
            <mxPoint x="400" y="310" as="sourcePoint" />
            <mxPoint x="450" y="260" as="targetPoint" />
          </mxGeometry>
        </mxCell>
        <mxCell id="4uTu8Fgki8ZaqtgNegOI-32" value="" style="endArrow=none;html=1;rounded=0;entryX=0.5;entryY=1;entryDx=0;entryDy=0;exitX=0;exitY=0.5;exitDx=0;exitDy=0;" edge="1" parent="1" source="4uTu8Fgki8ZaqtgNegOI-35" target="4uTu8Fgki8ZaqtgNegOI-29">
          <mxGeometry width="50" height="50" relative="1" as="geometry">
            <mxPoint x="754" y="320" as="sourcePoint" />
            <mxPoint x="730" y="300" as="targetPoint" />
          </mxGeometry>
        </mxCell>
        <mxCell id="4uTu8Fgki8ZaqtgNegOI-33" value="EMPRESA" style="rounded=0;whiteSpace=wrap;html=1;" vertex="1" parent="1">
          <mxGeometry x="720" y="585" width="120" height="60" as="geometry" />
        </mxCell>
        <mxCell id="4uTu8Fgki8ZaqtgNegOI-34" value="" style="curved=1;endArrow=classic;html=1;rounded=0;" edge="1" parent="1">
          <mxGeometry width="50" height="50" relative="1" as="geometry">
            <mxPoint x="355" y="400" as="sourcePoint" />
            <mxPoint x="355" y="280" as="targetPoint" />
            <Array as="points">
              <mxPoint x="305" y="350" />
            </Array>
          </mxGeometry>
        </mxCell>
        <mxCell id="4uTu8Fgki8ZaqtgNegOI-35" value="en" style="shape=rhombus;perimeter=rhombusPerimeter;whiteSpace=wrap;html=1;align=center;fillColor=#fff2cc;strokeColor=#d6b656;" vertex="1" parent="1">
          <mxGeometry x="735" y="450" width="90" height="50" as="geometry" />
        </mxCell>
        <mxCell id="4uTu8Fgki8ZaqtgNegOI-36" value="" style="endArrow=none;html=1;rounded=0;entryX=0.5;entryY=1;entryDx=0;entryDy=0;exitX=0.5;exitY=0;exitDx=0;exitDy=0;" edge="1" parent="1" source="4uTu8Fgki8ZaqtgNegOI-35" target="4uTu8Fgki8ZaqtgNegOI-22">
          <mxGeometry width="50" height="50" relative="1" as="geometry">
            <mxPoint x="400" y="310" as="sourcePoint" />
            <mxPoint x="450" y="260" as="targetPoint" />
          </mxGeometry>
        </mxCell>
        <mxCell id="4uTu8Fgki8ZaqtgNegOI-37" value="" style="endArrow=none;html=1;rounded=0;entryX=0.5;entryY=1;entryDx=0;entryDy=0;exitX=0.5;exitY=0;exitDx=0;exitDy=0;" edge="1" parent="1" source="4uTu8Fgki8ZaqtgNegOI-33" target="4uTu8Fgki8ZaqtgNegOI-35">
          <mxGeometry width="50" height="50" relative="1" as="geometry">
            <mxPoint x="790" y="440" as="sourcePoint" />
            <mxPoint x="790" y="380" as="targetPoint" />
          </mxGeometry>
        </mxCell>
        <mxCell id="4uTu8Fgki8ZaqtgNegOI-39" value="AnoTitulo" style="ellipse;whiteSpace=wrap;html=1;align=center;" vertex="1" parent="1">
          <mxGeometry x="160" y="200" width="80" height="30" as="geometry" />
        </mxCell>
        <mxCell id="4uTu8Fgki8ZaqtgNegOI-40" value="NotaTitulo" style="ellipse;whiteSpace=wrap;html=1;align=center;" vertex="1" parent="1">
          <mxGeometry x="290" y="200" width="80" height="30" as="geometry" />
        </mxCell>
        <mxCell id="4uTu8Fgki8ZaqtgNegOI-41" value="" style="endArrow=none;html=1;rounded=0;entryX=0.5;entryY=1;entryDx=0;entryDy=0;exitX=0.5;exitY=0;exitDx=0;exitDy=0;" edge="1" parent="1" source="4uTu8Fgki8ZaqtgNegOI-10" target="4uTu8Fgki8ZaqtgNegOI-39">
          <mxGeometry width="50" height="50" relative="1" as="geometry">
            <mxPoint x="400" y="310" as="sourcePoint" />
            <mxPoint x="450" y="260" as="targetPoint" />
          </mxGeometry>
        </mxCell>
        <mxCell id="4uTu8Fgki8ZaqtgNegOI-42" value="" style="endArrow=none;html=1;rounded=0;entryX=0.5;entryY=1;entryDx=0;entryDy=0;exitX=0.5;exitY=0;exitDx=0;exitDy=0;" edge="1" parent="1" source="4uTu8Fgki8ZaqtgNegOI-10" target="4uTu8Fgki8ZaqtgNegOI-40">
          <mxGeometry width="50" height="50" relative="1" as="geometry">
            <mxPoint x="275" y="280" as="sourcePoint" />
            <mxPoint x="220" y="230" as="targetPoint" />
          </mxGeometry>
        </mxCell>
        <mxCell id="4uTu8Fgki8ZaqtgNegOI-43" value="CURSO (Entidad agregada)" style="text;html=1;align=center;verticalAlign=middle;resizable=0;points=[];autosize=1;strokeColor=none;fillColor=none;" vertex="1" parent="1">
          <mxGeometry x="40" y="390" width="170" height="30" as="geometry" />
        </mxCell>
        <mxCell id="4uTu8Fgki8ZaqtgNegOI-44" value="tiene" style="shape=rhombus;perimeter=rhombusPerimeter;whiteSpace=wrap;html=1;align=center;fillColor=#fff2cc;strokeColor=#d6b656;" vertex="1" parent="1">
          <mxGeometry x="110" y="470" width="90" height="50" as="geometry" />
        </mxCell>
        <mxCell id="4uTu8Fgki8ZaqtgNegOI-45" value="tiene" style="shape=rhombus;perimeter=rhombusPerimeter;whiteSpace=wrap;html=1;align=center;fillColor=#fff2cc;strokeColor=#d6b656;" vertex="1" parent="1">
          <mxGeometry x="310" y="470" width="90" height="50" as="geometry" />
        </mxCell>
        <mxCell id="4uTu8Fgki8ZaqtgNegOI-46" value="" style="endArrow=none;html=1;rounded=0;exitX=0.5;exitY=0;exitDx=0;exitDy=0;entryX=0.5;entryY=1;entryDx=0;entryDy=0;" edge="1" parent="1" source="4uTu8Fgki8ZaqtgNegOI-44" target="4uTu8Fgki8ZaqtgNegOI-38">
          <mxGeometry width="50" height="50" relative="1" as="geometry">
            <mxPoint x="400" y="310" as="sourcePoint" />
            <mxPoint x="270" y="420" as="targetPoint" />
          </mxGeometry>
        </mxCell>
        <mxCell id="4uTu8Fgki8ZaqtgNegOI-48" value="" style="endArrow=none;html=1;rounded=0;exitX=0.5;exitY=0;exitDx=0;exitDy=0;" edge="1" parent="1" source="4uTu8Fgki8ZaqtgNegOI-45">
          <mxGeometry width="50" height="50" relative="1" as="geometry">
            <mxPoint x="165" y="480" as="sourcePoint" />
            <mxPoint x="265" y="420" as="targetPoint" />
          </mxGeometry>
        </mxCell>
        <mxCell id="4uTu8Fgki8ZaqtgNegOI-51" value="PROYECTO" style="shape=ext;margin=3;double=1;whiteSpace=wrap;html=1;align=center;" vertex="1" parent="1">
          <mxGeometry x="95" y="590" width="120" height="60" as="geometry" />
        </mxCell>
        <mxCell id="4uTu8Fgki8ZaqtgNegOI-52" value="PRACTICA" style="shape=ext;margin=3;double=1;whiteSpace=wrap;html=1;align=center;" vertex="1" parent="1">
          <mxGeometry x="295" y="590" width="120" height="60" as="geometry" />
        </mxCell>
        <mxCell id="4uTu8Fgki8ZaqtgNegOI-53" value="" style="endArrow=none;html=1;rounded=0;entryX=0.5;entryY=1;entryDx=0;entryDy=0;" edge="1" parent="1" source="4uTu8Fgki8ZaqtgNegOI-51" target="4uTu8Fgki8ZaqtgNegOI-44">
          <mxGeometry width="50" height="50" relative="1" as="geometry">
            <mxPoint x="400" y="610" as="sourcePoint" />
            <mxPoint x="450" y="560" as="targetPoint" />
          </mxGeometry>
        </mxCell>
        <mxCell id="4uTu8Fgki8ZaqtgNegOI-54" value="" style="endArrow=none;html=1;rounded=0;entryX=0.5;entryY=1;entryDx=0;entryDy=0;exitX=0.5;exitY=0;exitDx=0;exitDy=0;" edge="1" parent="1" source="4uTu8Fgki8ZaqtgNegOI-52" target="4uTu8Fgki8ZaqtgNegOI-45">
          <mxGeometry width="50" height="50" relative="1" as="geometry">
            <mxPoint x="165" y="600" as="sourcePoint" />
            <mxPoint x="165" y="530" as="targetPoint" />
          </mxGeometry>
        </mxCell>
        <mxCell id="4uTu8Fgki8ZaqtgNegOI-55" value="Convocatoria" style="ellipse;whiteSpace=wrap;html=1;align=center;" vertex="1" parent="1">
          <mxGeometry x="445" y="460" width="80" height="30" as="geometry" />
        </mxCell>
        <mxCell id="4uTu8Fgki8ZaqtgNegOI-56" value="&lt;u&gt;AnoPractica&lt;/u&gt;" style="ellipse;whiteSpace=wrap;html=1;align=center;" vertex="1" parent="1">
          <mxGeometry x="470" y="525" width="80" height="30" as="geometry" />
        </mxCell>
        <mxCell id="4uTu8Fgki8ZaqtgNegOI-58" value="" style="endArrow=none;html=1;rounded=0;entryX=0;entryY=0.5;entryDx=0;entryDy=0;exitX=1;exitY=0.5;exitDx=0;exitDy=0;" edge="1" parent="1" source="4uTu8Fgki8ZaqtgNegOI-45" target="4uTu8Fgki8ZaqtgNegOI-55">
          <mxGeometry width="50" height="50" relative="1" as="geometry">
            <mxPoint x="400" y="510" as="sourcePoint" />
            <mxPoint x="450" y="460" as="targetPoint" />
          </mxGeometry>
        </mxCell>
        <mxCell id="4uTu8Fgki8ZaqtgNegOI-59" value="" style="endArrow=none;html=1;rounded=0;exitX=0.5;exitY=0;exitDx=0;exitDy=0;entryX=0.413;entryY=0.967;entryDx=0;entryDy=0;entryPerimeter=0;" edge="1" parent="1" source="4uTu8Fgki8ZaqtgNegOI-70" target="4uTu8Fgki8ZaqtgNegOI-56">
          <mxGeometry width="50" height="50" relative="1" as="geometry">
            <mxPoint x="410" y="490" as="sourcePoint" />
            <mxPoint x="450" y="490" as="targetPoint" />
          </mxGeometry>
        </mxCell>
        <mxCell id="4uTu8Fgki8ZaqtgNegOI-60" value="" style="endArrow=none;html=1;rounded=0;exitX=0.5;exitY=0;exitDx=0;exitDy=0;entryX=0.5;entryY=1;entryDx=0;entryDy=0;" edge="1" parent="1" source="4uTu8Fgki8ZaqtgNegOI-70" target="4uTu8Fgki8ZaqtgNegOI-61">
          <mxGeometry width="50" height="50" relative="1" as="geometry">
            <mxPoint x="435" y="640" as="sourcePoint" />
            <mxPoint x="319" y="700" as="targetPoint" />
          </mxGeometry>
        </mxCell>
        <mxCell id="4uTu8Fgki8ZaqtgNegOI-61" value="AreaPractica" style="ellipse;shape=doubleEllipse;margin=3;whiteSpace=wrap;html=1;align=center;" vertex="1" parent="1">
          <mxGeometry x="580" y="525" width="80" height="30" as="geometry" />
        </mxCell>
        <mxCell id="4uTu8Fgki8ZaqtgNegOI-62" value="FechPresenta" style="ellipse;whiteSpace=wrap;html=1;align=center;" vertex="1" parent="1">
          <mxGeometry x="20" y="440" width="80" height="30" as="geometry" />
        </mxCell>
        <mxCell id="4uTu8Fgki8ZaqtgNegOI-63" value="TUTOR" style="rounded=0;whiteSpace=wrap;html=1;" vertex="1" parent="1">
          <mxGeometry x="95" y="780" width="120" height="60" as="geometry" />
        </mxCell>
        <mxCell id="4uTu8Fgki8ZaqtgNegOI-64" value="tiene" style="shape=rhombus;perimeter=rhombusPerimeter;whiteSpace=wrap;html=1;align=center;fillColor=#fff2cc;strokeColor=#d6b656;" vertex="1" parent="1">
          <mxGeometry x="110" y="690" width="90" height="50" as="geometry" />
        </mxCell>
        <mxCell id="4uTu8Fgki8ZaqtgNegOI-65" value="" style="endArrow=none;html=1;rounded=0;entryX=0.5;entryY=1;entryDx=0;entryDy=0;exitX=0.5;exitY=0;exitDx=0;exitDy=0;" edge="1" parent="1" source="4uTu8Fgki8ZaqtgNegOI-64" target="4uTu8Fgki8ZaqtgNegOI-51">
          <mxGeometry width="50" height="50" relative="1" as="geometry">
            <mxPoint x="165" y="600" as="sourcePoint" />
            <mxPoint x="165" y="530" as="targetPoint" />
          </mxGeometry>
        </mxCell>
        <mxCell id="4uTu8Fgki8ZaqtgNegOI-66" value="" style="endArrow=none;html=1;rounded=0;entryX=0.5;entryY=1;entryDx=0;entryDy=0;exitX=0.5;exitY=0;exitDx=0;exitDy=0;" edge="1" parent="1" source="4uTu8Fgki8ZaqtgNegOI-63" target="4uTu8Fgki8ZaqtgNegOI-64">
          <mxGeometry width="50" height="50" relative="1" as="geometry">
            <mxPoint x="165" y="700" as="sourcePoint" />
            <mxPoint x="165" y="660" as="targetPoint" />
          </mxGeometry>
        </mxCell>
        <mxCell id="4uTu8Fgki8ZaqtgNegOI-68" value="DniTutor" style="ellipse;whiteSpace=wrap;html=1;align=center;" vertex="1" parent="1">
          <mxGeometry x="270" y="795" width="80" height="30" as="geometry" />
        </mxCell>
        <mxCell id="4uTu8Fgki8ZaqtgNegOI-69" value="" style="endArrow=none;html=1;rounded=0;entryX=0;entryY=0.5;entryDx=0;entryDy=0;exitX=1;exitY=0.5;exitDx=0;exitDy=0;" edge="1" parent="1" source="4uTu8Fgki8ZaqtgNegOI-63" target="4uTu8Fgki8ZaqtgNegOI-68">
          <mxGeometry width="50" height="50" relative="1" as="geometry">
            <mxPoint x="165" y="790" as="sourcePoint" />
            <mxPoint x="165" y="750" as="targetPoint" />
          </mxGeometry>
        </mxCell>
        <mxCell id="4uTu8Fgki8ZaqtgNegOI-70" value="en" style="shape=rhombus;perimeter=rhombusPerimeter;whiteSpace=wrap;html=1;align=center;fillColor=#fff2cc;strokeColor=#d6b656;" vertex="1" parent="1">
          <mxGeometry x="520" y="595" width="90" height="50" as="geometry" />
        </mxCell>
        <mxCell id="4uTu8Fgki8ZaqtgNegOI-71" value="" style="endArrow=none;html=1;rounded=0;entryX=1;entryY=0.5;entryDx=0;entryDy=0;exitX=0;exitY=0.583;exitDx=0;exitDy=0;exitPerimeter=0;" edge="1" parent="1" source="4uTu8Fgki8ZaqtgNegOI-33" target="4uTu8Fgki8ZaqtgNegOI-70">
          <mxGeometry width="50" height="50" relative="1" as="geometry">
            <mxPoint x="790" y="595" as="sourcePoint" />
            <mxPoint x="790" y="510" as="targetPoint" />
          </mxGeometry>
        </mxCell>
        <mxCell id="4uTu8Fgki8ZaqtgNegOI-72" value="" style="endArrow=none;html=1;rounded=0;entryX=1;entryY=0.5;entryDx=0;entryDy=0;" edge="1" parent="1" target="4uTu8Fgki8ZaqtgNegOI-52">
          <mxGeometry width="50" height="50" relative="1" as="geometry">
            <mxPoint x="520" y="620" as="sourcePoint" />
            <mxPoint x="614" y="624" as="targetPoint" />
          </mxGeometry>
        </mxCell>
        <mxCell id="4uTu8Fgki8ZaqtgNegOI-73" value="(1,N)" style="text;html=1;align=center;verticalAlign=middle;resizable=0;points=[];autosize=1;strokeColor=none;fillColor=none;" vertex="1" parent="1">
          <mxGeometry x="285" y="325" width="50" height="30" as="geometry" />
        </mxCell>
        <mxCell id="4uTu8Fgki8ZaqtgNegOI-74" value="(1,N)" style="text;html=1;align=center;verticalAlign=middle;resizable=0;points=[];autosize=1;strokeColor=none;fillColor=none;" vertex="1" parent="1">
          <mxGeometry x="460" y="160" width="50" height="30" as="geometry" />
        </mxCell>
        <mxCell id="4uTu8Fgki8ZaqtgNegOI-75" value="(1,N)" style="text;html=1;align=center;verticalAlign=middle;resizable=0;points=[];autosize=1;strokeColor=none;fillColor=none;" vertex="1" parent="1">
          <mxGeometry x="460" y="280" width="50" height="30" as="geometry" />
        </mxCell>
        <mxCell id="4uTu8Fgki8ZaqtgNegOI-76" value="M:N" style="text;html=1;align=center;verticalAlign=middle;resizable=0;points=[];autosize=1;strokeColor=none;fillColor=none;" vertex="1" parent="1">
          <mxGeometry x="485" y="208" width="50" height="30" as="geometry" />
        </mxCell>
        <mxCell id="4uTu8Fgki8ZaqtgNegOI-77" value="(1,N)" style="text;html=1;align=center;verticalAlign=middle;resizable=0;points=[];autosize=1;strokeColor=none;fillColor=none;" vertex="1" parent="1">
          <mxGeometry x="345" y="290" width="50" height="30" as="geometry" />
        </mxCell>
        <mxCell id="4uTu8Fgki8ZaqtgNegOI-78" value="(1,N)" style="text;html=1;align=center;verticalAlign=middle;resizable=0;points=[];autosize=1;strokeColor=none;fillColor=none;" vertex="1" parent="1">
          <mxGeometry x="140" y="290" width="50" height="30" as="geometry" />
        </mxCell>
        <mxCell id="4uTu8Fgki8ZaqtgNegOI-79" value="M:N" style="text;html=1;align=center;verticalAlign=middle;resizable=0;points=[];autosize=1;strokeColor=none;fillColor=none;" vertex="1" parent="1">
          <mxGeometry x="240" y="315" width="50" height="30" as="geometry" />
        </mxCell>
        <mxCell id="4uTu8Fgki8ZaqtgNegOI-80" value="(1,N)" style="text;html=1;align=center;verticalAlign=middle;resizable=0;points=[];autosize=1;strokeColor=none;fillColor=none;" vertex="1" parent="1">
          <mxGeometry x="345" y="365" width="50" height="30" as="geometry" />
        </mxCell>
        <mxCell id="4uTu8Fgki8ZaqtgNegOI-81" value="(1,N)" style="text;html=1;align=center;verticalAlign=middle;resizable=0;points=[];autosize=1;strokeColor=none;fillColor=none;" vertex="1" parent="1">
          <mxGeometry x="140" y="360" width="50" height="30" as="geometry" />
        </mxCell>
        <mxCell id="4uTu8Fgki8ZaqtgNegOI-82" value="M:N" style="text;html=1;align=center;verticalAlign=middle;resizable=0;points=[];autosize=1;strokeColor=none;fillColor=none;" vertex="1" parent="1">
          <mxGeometry x="240" y="335" width="50" height="30" as="geometry" />
        </mxCell>
        <mxCell id="4uTu8Fgki8ZaqtgNegOI-83" value="(1,N)" style="text;html=1;align=center;verticalAlign=middle;resizable=0;points=[];autosize=1;strokeColor=none;fillColor=none;" vertex="1" parent="1">
          <mxGeometry x="150" y="420" width="50" height="30" as="geometry" />
        </mxCell>
        <mxCell id="4uTu8Fgki8ZaqtgNegOI-84" value="(1,1)" style="text;html=1;align=center;verticalAlign=middle;resizable=0;points=[];autosize=1;strokeColor=none;fillColor=none;" vertex="1" parent="1">
          <mxGeometry x="115" y="558" width="50" height="30" as="geometry" />
        </mxCell>
        <mxCell id="4uTu8Fgki8ZaqtgNegOI-85" value="(1,1)" style="text;html=1;align=center;verticalAlign=middle;resizable=0;points=[];autosize=1;strokeColor=none;fillColor=none;" vertex="1" parent="1">
          <mxGeometry x="305" y="560" width="50" height="30" as="geometry" />
        </mxCell>
        <mxCell id="4uTu8Fgki8ZaqtgNegOI-86" value="(1,N)" style="text;html=1;align=center;verticalAlign=middle;resizable=0;points=[];autosize=1;strokeColor=none;fillColor=none;" vertex="1" parent="1">
          <mxGeometry x="310" y="420" width="50" height="30" as="geometry" />
        </mxCell>
        <mxCell id="4uTu8Fgki8ZaqtgNegOI-87" value="N:1" style="text;html=1;align=center;verticalAlign=middle;resizable=0;points=[];autosize=1;strokeColor=none;fillColor=none;" vertex="1" parent="1">
          <mxGeometry x="200" y="480" width="40" height="30" as="geometry" />
        </mxCell>
        <mxCell id="4uTu8Fgki8ZaqtgNegOI-88" value="N:1" style="text;html=1;align=center;verticalAlign=middle;resizable=0;points=[];autosize=1;strokeColor=none;fillColor=none;" vertex="1" parent="1">
          <mxGeometry x="280" y="480" width="40" height="30" as="geometry" />
        </mxCell>
        <mxCell id="4uTu8Fgki8ZaqtgNegOI-89" value="(1,1)" style="text;html=1;align=center;verticalAlign=middle;resizable=0;points=[];autosize=1;strokeColor=none;fillColor=none;" vertex="1" parent="1">
          <mxGeometry x="110" y="750" width="50" height="30" as="geometry" />
        </mxCell>
        <mxCell id="4uTu8Fgki8ZaqtgNegOI-90" value="(1,N)" style="text;html=1;align=center;verticalAlign=middle;resizable=0;points=[];autosize=1;strokeColor=none;fillColor=none;" vertex="1" parent="1">
          <mxGeometry x="115" y="645" width="50" height="30" as="geometry" />
        </mxCell>
        <mxCell id="4uTu8Fgki8ZaqtgNegOI-91" value="N:1" style="text;html=1;align=center;verticalAlign=middle;resizable=0;points=[];autosize=1;strokeColor=none;fillColor=none;" vertex="1" parent="1">
          <mxGeometry x="75" y="700" width="40" height="30" as="geometry" />
        </mxCell>
        <mxCell id="4uTu8Fgki8ZaqtgNegOI-92" value="N:1" style="text;html=1;align=center;verticalAlign=middle;resizable=0;points=[];autosize=1;strokeColor=none;fillColor=none;" vertex="1" parent="1">
          <mxGeometry x="545" y="645" width="40" height="30" as="geometry" />
        </mxCell>
        <mxCell id="4uTu8Fgki8ZaqtgNegOI-93" value="(1,1)" style="text;html=1;align=center;verticalAlign=middle;resizable=0;points=[];autosize=1;strokeColor=none;fillColor=none;" vertex="1" parent="1">
          <mxGeometry x="670" y="585" width="50" height="30" as="geometry" />
        </mxCell>
        <mxCell id="4uTu8Fgki8ZaqtgNegOI-94" value="(1,N)" style="text;html=1;align=center;verticalAlign=middle;resizable=0;points=[];autosize=1;strokeColor=none;fillColor=none;" vertex="1" parent="1">
          <mxGeometry x="410" y="588" width="50" height="30" as="geometry" />
        </mxCell>
        <mxCell id="4uTu8Fgki8ZaqtgNegOI-95" value="(1,N)" style="text;html=1;align=center;verticalAlign=middle;resizable=0;points=[];autosize=1;strokeColor=none;fillColor=none;" vertex="1" parent="1">
          <mxGeometry x="735" y="365" width="50" height="30" as="geometry" />
        </mxCell>
        <mxCell id="4uTu8Fgki8ZaqtgNegOI-96" value="(1,N)" style="text;html=1;align=center;verticalAlign=middle;resizable=0;points=[];autosize=1;strokeColor=none;fillColor=none;" vertex="1" parent="1">
          <mxGeometry x="735" y="555" width="50" height="30" as="geometry" />
        </mxCell>
        <mxCell id="4uTu8Fgki8ZaqtgNegOI-97" value="M:N" style="text;html=1;align=center;verticalAlign=middle;resizable=0;points=[];autosize=1;strokeColor=none;fillColor=none;" vertex="1" parent="1">
          <mxGeometry x="685" y="460" width="50" height="30" as="geometry" />
        </mxCell>
        <mxCell id="4uTu8Fgki8ZaqtgNegOI-98" value="(1,N)" style="text;html=1;align=center;verticalAlign=middle;resizable=0;points=[];autosize=1;strokeColor=none;fillColor=none;" vertex="1" parent="1">
          <mxGeometry x="510" y="340" width="50" height="30" as="geometry" />
        </mxCell>
        <mxCell id="4uTu8Fgki8ZaqtgNegOI-99" value="(1,N)" style="text;html=1;align=center;verticalAlign=middle;resizable=0;points=[];autosize=1;strokeColor=none;fillColor=none;" vertex="1" parent="1">
          <mxGeometry x="670" y="340" width="50" height="30" as="geometry" />
        </mxCell>
        <mxCell id="4uTu8Fgki8ZaqtgNegOI-101" value="&lt;u&gt;Cif&lt;/u&gt;" style="ellipse;whiteSpace=wrap;html=1;align=center;" vertex="1" parent="1">
          <mxGeometry x="745" y="680" width="70" height="30" as="geometry" />
        </mxCell>
        <mxCell id="4uTu8Fgki8ZaqtgNegOI-102" value="" style="endArrow=none;html=1;rounded=0;entryX=0.5;entryY=0;entryDx=0;entryDy=0;exitX=0.5;exitY=1;exitDx=0;exitDy=0;" edge="1" parent="1" source="4uTu8Fgki8ZaqtgNegOI-33" target="4uTu8Fgki8ZaqtgNegOI-101">
          <mxGeometry width="50" height="50" relative="1" as="geometry">
            <mxPoint x="395" y="660" as="sourcePoint" />
            <mxPoint x="452" y="704" as="targetPoint" />
          </mxGeometry>
        </mxCell>
        <mxCell id="4uTu8Fgki8ZaqtgNegOI-103" value="" style="endArrow=none;html=1;rounded=0;exitX=0;exitY=0.5;exitDx=0;exitDy=0;entryX=0.5;entryY=1;entryDx=0;entryDy=0;" edge="1" parent="1" source="4uTu8Fgki8ZaqtgNegOI-44" target="4uTu8Fgki8ZaqtgNegOI-62">
          <mxGeometry width="50" height="50" relative="1" as="geometry">
            <mxPoint x="346" y="661" as="sourcePoint" />
            <mxPoint x="287" y="702" as="targetPoint" />
          </mxGeometry>
        </mxCell>
        <mxCell id="4uTu8Fgki8ZaqtgNegOI-105" value="M:N" style="text;html=1;align=center;verticalAlign=middle;resizable=0;points=[];autosize=1;strokeColor=none;fillColor=none;" vertex="1" parent="1">
          <mxGeometry x="590" y="360" width="50" height="30" as="geometry" />
        </mxCell>
        <mxCell id="4uTu8Fgki8ZaqtgNegOI-107" value="&lt;u&gt;NomProyecto&lt;/u&gt;" style="ellipse;whiteSpace=wrap;html=1;align=center;" vertex="1" parent="1">
          <mxGeometry x="10" y="565" width="80" height="30" as="geometry" />
        </mxCell>
        <mxCell id="4uTu8Fgki8ZaqtgNegOI-108" value="" style="endArrow=none;html=1;rounded=0;entryX=0.5;entryY=1;entryDx=0;entryDy=0;exitX=0;exitY=0.5;exitDx=0;exitDy=0;" edge="1" parent="1" source="4uTu8Fgki8ZaqtgNegOI-51" target="4uTu8Fgki8ZaqtgNegOI-107">
          <mxGeometry width="50" height="50" relative="1" as="geometry">
            <mxPoint x="90" y="610" as="sourcePoint" />
            <mxPoint x="70" y="480" as="targetPoint" />
          </mxGeometry>
        </mxCell>
      </root>
    </mxGraphModel>
  </diagram>
</mxfile>
